<svg xmlns="http://www.w3.org/2000/svg" width="12.996" height="12.005" viewBox="0 0 12.996 12.005">
  <g id="ion:alarm" transform="translate(-1262.502 -854)">
    <path id="Vector" d="M1265.8,855.452a.669.669,0,0,0-.035-.983A1.958,1.958,0,0,0,1264.5,854l-.1,0h-.015a2.053,2.053,0,0,0-1.881,2.091,1.7,1.7,0,0,0,.448,1.16.644.644,0,0,0,.459.244l.063,0a.6.6,0,0,0,.43-.184Z" fill="#c0cdd7"/>
    <path id="Vector-2" data-name="Vector" d="M1273.618,854l-.1,0h-.016a1.959,1.959,0,0,0-1.266.469.668.668,0,0,0-.232.484.67.67,0,0,0,.2.5l1.9,1.864a.594.594,0,0,0,.431.184.471.471,0,0,0,.062,0,.645.645,0,0,0,.459-.244,1.7,1.7,0,0,0,.448-1.16,2.052,2.052,0,0,0-1.88-2.092Z" fill="#c0cdd7"/>
    <path id="Vector-3" data-name="Vector" d="M1274,866.005h0a.5.5,0,0,1-.355-.152l-1.129-1.129a5.489,5.489,0,0,1-7.035,0l-1.129,1.129a.5.5,0,0,1-.356.152.5.5,0,0,1-.193-.038.48.48,0,0,1-.165-.109.5.5,0,0,1-.109-.164.491.491,0,0,1-.037-.193.5.5,0,0,1,.04-.193.5.5,0,0,1,.112-.162l1.129-1.129a5.5,5.5,0,1,1,8.449,0l1.13,1.129a.5.5,0,0,1,.112.162.494.494,0,0,1,.04.193.487.487,0,0,1-.037.193.5.5,0,0,1-.109.164.492.492,0,0,1-.165.109A.5.5,0,0,1,1274,866.005Zm-7.5-6a.5.5,0,0,0-.353.146.5.5,0,0,0,.353.854h2.5a.5.5,0,0,0,.354-.147.5.5,0,0,0,.147-.354V857a.5.5,0,1,0-1,0v3Z" fill="#c0cdd7"/>
  </g>
</svg>
