<svg xmlns="http://www.w3.org/2000/svg" width="35" height="35" viewBox="0 0 35 35">
  <g id="onigiri" transform="translate(-274 -274)">
    <g id="Layer_x0020_1" data-name="Layer x0020 1">
      <rect id="Vector" width="35" height="35" transform="translate(274 274)" fill="none"/>
      <g id="_2920722035584" data-name="2920722035584">
        <path id="Vector-2" data-name="Vector" d="M279.5,285.794a.543.543,0,1,1-.543.543.543.543,0,0,1,.543-.543Z" fill="#40484e"/>
        <circle id="Vector-3" data-name="Vector" cx="0.54" cy="0.54" r="0.54" transform="translate(286.24 281.97)" fill="#40484e"/>
        <circle id="Vector-4" data-name="Vector" cx="0.54" cy="0.54" r="0.54" transform="translate(283.44 286.18)" fill="#40484e"/>
        <circle id="Vector-5" data-name="Vector" cx="0.54" cy="0.54" r="0.54" transform="translate(281.79 282.08)" fill="#40484e"/>
        <circle id="Vector-6" data-name="Vector" cx="0.54" cy="0.54" r="0.54" transform="translate(276.77 291.7)" fill="#40484e"/>
        <circle id="Vector-7" data-name="Vector" cx="0.54" cy="0.54" r="0.54" transform="translate(289.46 285.46)" fill="#40484e"/>
        <circle id="Vector-8" data-name="Vector" cx="0.54" cy="0.54" r="0.54" transform="translate(290.33 295.49)" fill="#40484e"/>
        <circle id="Vector-9" data-name="Vector" cx="0.54" cy="0.54" r="0.54" transform="translate(295.66 287.87)" fill="#40484e"/>
        <circle id="Vector-10" data-name="Vector" cx="0.54" cy="0.54" r="0.54" transform="translate(292.24 291.24)" fill="#40484e"/>
        <circle id="Vector-11" data-name="Vector" cx="0.54" cy="0.54" r="0.54" transform="translate(298.03 290.13)" fill="#40484e"/>
        <circle id="Vector-12" data-name="Vector" cx="0.54" cy="0.54" r="0.54" transform="translate(289.46 300.35)" fill="#40484e"/>
        <path id="Vector-13" data-name="Vector" d="M297.806,293.23a.543.543,0,1,1-.543.543.543.543,0,0,1,.543-.543Z" fill="#40484e"/>
        <circle id="Vector-14" data-name="Vector" cx="0.54" cy="0.54" r="0.54" transform="translate(304.46 299.56)" fill="#40484e"/>
        <circle id="Vector-15" data-name="Vector" cx="0.54" cy="0.54" r="0.54" transform="translate(304.24 295.07)" fill="#40484e"/>
        <circle id="Vector-16" data-name="Vector" cx="0.54" cy="0.54" r="0.54" transform="translate(302.48 290.93)" fill="#40484e"/>
        <g id="Group">
          <path id="Vector-17" data-name="Vector" d="M285.307,298.45a23.676,23.676,0,0,1-6.163-.615c-2.581-.7-4.16-2.061-4.693-4.031a7.8,7.8,0,0,1-.258-2.039,15.756,15.756,0,0,1,3.249-8.709c1.994-2.777,4.481-4.785,6.652-5.372a5.064,5.064,0,0,1,1.318-.185,8.369,8.369,0,0,1,5.128,2.4,19.553,19.553,0,0,1,4.485,5.873l.2.4-.388.229a16.118,16.118,0,0,0-5,5.09,15.131,15.131,0,0,0-2.469,6.5l-.04.423-.427.013c-.261.008-.535.013-.836.017C285.646,298.449,285.432,298.45,285.307,298.45Zm.1-19.986a4.114,4.114,0,0,0-1.068.151c-1.964.532-4.252,2.4-6.12,5a14.785,14.785,0,0,0-3.064,8.148,6.867,6.867,0,0,0,.224,1.791c.437,1.616,1.788,2.743,4.014,3.351a22.864,22.864,0,0,0,5.91.578l.756,0h.029l.372-.006a16.556,16.556,0,0,1,2.567-6.505,17.435,17.435,0,0,1,4.933-5.161,18.594,18.594,0,0,0-4.058-5.189A7.443,7.443,0,0,0,285.412,278.464Z" fill="#40484e"/>
          <path id="Vector-18" data-name="Vector" d="M285.307,298.45c-.649,0-1.427-.006-2.274-.051a21.663,21.663,0,0,1-2.564-.272l-.4-.069V290.17a1.392,1.392,0,0,1,1.389-1.388h7.914a1.4,1.4,0,0,1,1.373,1.191l.028.2-.121.16a18.948,18.948,0,0,0-2.258,3.881,12.814,12.814,0,0,0-1.018,3.781l-.04.423-.427.013c-.261.008-.534.013-.836.017C285.646,298.449,285.432,298.45,285.307,298.45Zm-3.852-8.7a.424.424,0,0,0-.423.422v7.07c.626.092,1.316.158,2.05.2.793.042,1.57.048,2.225.048l.756,0h.029l.371-.006a14.2,14.2,0,0,1,1.041-3.643,19.887,19.887,0,0,1,2.227-3.881.425.425,0,0,0-.363-.2Z" fill="#40484e"/>
          <path id="Vector-19" data-name="Vector" d="M297.483,305.5a23.641,23.641,0,0,1-6.163-.616c-2.581-.7-4.16-2.06-4.693-4.03a7.8,7.8,0,0,1-.258-2.039,15.765,15.765,0,0,1,3.249-8.71c1.995-2.776,4.481-4.784,6.652-5.371a4.755,4.755,0,0,1,2.636,0c2.171.587,4.657,2.595,6.652,5.371a15.757,15.757,0,0,1,3.247,8.71,7.688,7.688,0,0,1-.257,2.039c-.532,1.97-2.147,3.326-4.8,4.033A25,25,0,0,1,297.483,305.5Zm.105-19.986a4.126,4.126,0,0,0-1.069.151c-1.964.532-4.252,2.4-6.12,5a14.785,14.785,0,0,0-3.065,8.148,6.862,6.862,0,0,0,.224,1.79c.437,1.617,1.788,2.744,4.014,3.352a23.257,23.257,0,0,0,5.91.578,24.166,24.166,0,0,0,6.019-.58c2.294-.61,3.679-1.737,4.115-3.35a6.863,6.863,0,0,0,.224-1.79,14.774,14.774,0,0,0-3.064-8.148c-1.868-2.6-4.156-4.47-6.12-5A4.113,4.113,0,0,0,297.589,285.516Z" fill="#40484e"/>
          <path id="Vector-20" data-name="Vector" d="M297.483,305.5c-.648,0-1.424-.006-2.273-.05a21.9,21.9,0,0,1-2.565-.273l-.4-.069v-7.888a1.39,1.39,0,0,1,1.389-1.388h7.914a1.39,1.39,0,0,1,1.389,1.388v7.862l-.4.071a22.545,22.545,0,0,1-2.688.293C298.967,305.5,298.158,305.5,297.483,305.5Zm-3.852-8.7a.426.426,0,0,0-.423.422v7.07c.632.093,1.3.158,2.05.2.8.041,1.571.047,2.225.047.68,0,1.487-.006,2.312-.05.789-.043,1.5-.113,2.173-.215v-7.049a.426.426,0,0,0-.423-.422Z" fill="#40484e"/>
          <rect id="Vector-21" data-name="Vector" width="0.97" height="5.88" rx="0.48" transform="translate(294.23 297.76)" fill="#40484e"/>
          <rect id="Vector-22" data-name="Vector" width="0.97" height="5.88" rx="0.48" transform="translate(282.05 290.82)" fill="#40484e"/>
        </g>
      </g>
    </g>
  </g>
</svg>
