<svg xmlns="http://www.w3.org/2000/svg" width="16.25" height="17.5" viewBox="0 0 16.25 17.5">
  <path id="Vector" d="M1807.313,768.75h-10.625a2.85,2.85,0,0,1-2.812-2.812V757.5a1.242,1.242,0,0,1,.366-.884,1.256,1.256,0,0,1,.884-.366h2.5v-.626a4.346,4.346,0,0,1,1.281-3.093A4.4,4.4,0,0,1,1802,751.25a4.374,4.374,0,0,1,4.375,4.375v.626h2.507a1.222,1.222,0,0,1,.472.094,1.236,1.236,0,0,1,.406.273,1.215,1.215,0,0,1,.271.405,1.235,1.235,0,0,1,.094.478v8.486a2.716,2.716,0,0,1-.841,1.961A2.808,2.808,0,0,1,1807.313,768.75Zm-7.812-6.441a.628.628,0,0,0-.558.342.623.623,0,0,0-.066.235.63.63,0,0,0,.029.242.6.6,0,0,0,.12.212l1.5,1.753a.631.631,0,0,0,.213.162.64.64,0,0,0,.262.057h.01a.623.623,0,0,0,.266-.064.631.631,0,0,0,.212-.17l3.5-4.375a.625.625,0,0,0-.556-1.013.619.619,0,0,0-.419.231l-3.028,3.785-1.01-1.18a.632.632,0,0,0-.427-.217Zm2.5-9.809a3.125,3.125,0,0,0-3.125,3.125v.626h6.25v-.626A3.125,3.125,0,0,0,1802,752.5Z" transform="translate(-1793.875 -751.25)" fill="#fff"/>
</svg>
