<svg xmlns="http://www.w3.org/2000/svg" width="13.5" height="13.5" viewBox="0 0 13.5 13.5">
  <g id="ion:create-outline" transform="translate(-2387.5 -108)">
    <path id="Vector" d="M2398,114.5v5.25a1.25,1.25,0,0,1-1.25,1.25h-7.5a1.25,1.25,0,0,1-1.25-1.25v-7.5a1.25,1.25,0,0,1,1.25-1.25H2394" fill="none" stroke="#fc4747" stroke-width="1"/>
    <path id="Vector-2" data-name="Vector" d="M2400.806,108.25a.765.765,0,0,0-1.106-.027l-.589.586a.381.381,0,0,0,0,.539l.54.539a.38.38,0,0,0,.54,0l.575-.572A.775.775,0,0,0,2400.806,108.25Z" fill="#fc4747"/>
    <path id="Vector-3" data-name="Vector" d="M2397.717,110.133l-6.173,6.155a.458.458,0,0,0-.117.2l-.424,1.263a.2.2,0,0,0,0,.105.2.2,0,0,0,.144.144.2.2,0,0,0,.105,0l1.262-.424a.457.457,0,0,0,.2-.117l6.157-6.173a.457.457,0,0,0,0-.643l-.505-.508a.457.457,0,0,0-.646,0Z" fill="#fc4747"/>
  </g>
</svg>
