<svg xmlns="http://www.w3.org/2000/svg" width="22.74" height="22.74" viewBox="0 0 22.74 22.74">
  <g id="ion:heart-circle" transform="translate(-1363.63 -881.63)">
    <path id="Vector" d="M1375,904.37a11.37,11.37,0,1,1,8.04-3.331A11.3,11.3,0,0,1,1375,904.37Zm-2.651-16.184a3.084,3.084,0,0,0-3.037,3.081,6.337,6.337,0,0,0,1.6,4.184,16.027,16.027,0,0,0,3.593,3.084.868.868,0,0,0,.984,0,15.958,15.958,0,0,0,3.593-3.084,6.332,6.332,0,0,0,1.6-4.184,3.084,3.084,0,0,0-3.037-3.081,3.289,3.289,0,0,0-2.412,1.117.335.335,0,0,1-.108.076.324.324,0,0,1-.13.027.327.327,0,0,1-.131-.027.333.333,0,0,1-.109-.076A3.278,3.278,0,0,0,1372.349,888.187Z" fill="#c0cdd7"/>
  </g>
</svg>
