<svg xmlns="http://www.w3.org/2000/svg" width="19.5" height="16.499" viewBox="0 0 19.5 16.499">
  <g id="ion:options" transform="translate(-313.25 -195.751)">
    <path id="Vector" d="M314,198.75h10.629a2.25,2.25,0,0,0,4.242,0H332a.75.75,0,1,0,0-1.5h-3.129a2.25,2.25,0,0,0-4.242,0H314a.75.75,0,1,0,0,1.5Z" fill="#40484e"/>
    <path id="Vector-2" data-name="Vector" d="M332,209.25h-3.129a2.25,2.25,0,0,0-4.242,0H314a.75.75,0,1,0,0,1.5h10.629a2.25,2.25,0,0,0,4.242,0H332a.75.75,0,1,0,0-1.5Z" fill="#40484e"/>
    <path id="Vector-3" data-name="Vector" d="M332,203.25H321.371a2.25,2.25,0,0,0-4.242,0H314a.75.75,0,1,0,0,1.5h3.129a2.25,2.25,0,0,0,4.242,0H332a.75.75,0,1,0,0-1.5Z" fill="#40484e"/>
  </g>
</svg>
