<svg xmlns="http://www.w3.org/2000/svg" width="22.5" height="22.498" viewBox="0 0 22.5 22.498">
  <g id="ion:ticket" transform="translate(-2144.75 -247.75)">
    <path id="Vector" d="M2153.163,270.248a.942.942,0,0,1-.66-.273l-2.068-2.069a.938.938,0,0,1-.047-1.265,1.439,1.439,0,0,0-1.037-2.376h-.053a1.441,1.441,0,0,0-.938.348.942.942,0,0,1-.607.223h-.036a.934.934,0,0,1-.623-.269l-2.071-2.069a.931.931,0,0,1,0-1.319l8.456-8.456a1.886,1.886,0,0,1,.727-.449.381.381,0,0,0,.14-.086.357.357,0,0,0,.086-.14,1.876,1.876,0,0,1,.449-.727l3.3-3.3a.933.933,0,0,1,1.319,0l2.07,2.071a.937.937,0,0,1,.048,1.265,1.436,1.436,0,0,0,1.037,2.372h.057a1.445,1.445,0,0,0,.935-.344.933.933,0,0,1,.606-.223h.036a.934.934,0,0,1,.624.269l2.068,2.068a.932.932,0,0,1,0,1.317l-3.3,3.3a1.87,1.87,0,0,1-.725.449.368.368,0,0,0-.14.086.361.361,0,0,0-.087.14,1.863,1.863,0,0,1-.449.726l-8.455,8.456A.929.929,0,0,1,2153.163,270.248Zm8.244-11.748a.752.752,0,0,0-.53.218.748.748,0,0,0-.164.246.75.75,0,0,0,.169.823l.536.539a.736.736,0,0,0,.243.163.754.754,0,0,0,.287.057.743.743,0,0,0,.287-.057.734.734,0,0,0,.243-.163.688.688,0,0,0,.166-.241.759.759,0,0,0,.057-.286.752.752,0,0,0-.22-.531l-.536-.538a.743.743,0,0,0-.532-.229Zm-2.047-2.05h0a.75.75,0,0,0-.536,1.272l.516.516a.734.734,0,0,0,.243.163.745.745,0,0,0,.574,0,.737.737,0,0,0,.243-.163.68.68,0,0,0,.166-.241.754.754,0,0,0,0-.575.769.769,0,0,0-.165-.244l-.516-.516a.746.746,0,0,0-.521-.212Zm-2.071-2.071a.752.752,0,0,0-.751.751.738.738,0,0,0,.058.286.75.75,0,0,0,.163.244l.516.516a.749.749,0,0,0,1.06,0,.724.724,0,0,0,.164-.242.748.748,0,0,0,.057-.288.727.727,0,0,0-.058-.287.717.717,0,0,0-.163-.244l-.516-.516a.758.758,0,0,0-.243-.163A.772.772,0,0,0,2157.289,254.38Zm-2.078-2.078h-.007a.75.75,0,0,0-.533,1.273l.539.539a.763.763,0,0,0,.244.163.755.755,0,0,0,.574,0,.749.749,0,0,0,.463-.693.739.739,0,0,0-.057-.287.756.756,0,0,0-.163-.244l-.54-.539a.745.745,0,0,0-.521-.212Z" fill="#fff"/>
  </g>
</svg>
