<svg xmlns="http://www.w3.org/2000/svg" width="14.999" height="17.5" viewBox="0 0 14.999 17.5">
  <g id="ion:trash" transform="translate(-1892.5 -106.25)">
    <path id="Vector" d="M1901.563,107.5h-3.125a.309.309,0,0,0-.312.313v.938h3.75v-.937a.309.309,0,0,0-.312-.312Z" fill="none"/>
    <path id="Vector-2" data-name="Vector" d="M1903.594,123.75h-7.187a1.885,1.885,0,0,1-1.875-1.839L1893.789,110h-.664a.625.625,0,0,1,0-1.25h3.75v-.937a1.561,1.561,0,0,1,1.562-1.562h3.125a1.561,1.561,0,0,1,1.562,1.562v.937h3.75a.625.625,0,1,1,0,1.25h-.664l-.742,11.914A1.875,1.875,0,0,1,1903.594,123.75Zm-.779-12.5a.628.628,0,0,0-.627.6l-.312,8.75a.628.628,0,0,0,.04.241.623.623,0,0,0,.563.406h.022a.62.62,0,0,0,.434-.175.628.628,0,0,0,.191-.427l.313-8.751a.62.62,0,0,0-.04-.24.624.624,0,0,0-.326-.351.616.616,0,0,0-.238-.056Zm-2.814,0a.625.625,0,0,0-.626.626v8.75a.625.625,0,1,0,1.25,0v-8.75a.624.624,0,0,0-.625-.626Zm-2.814,0h-.021a.624.624,0,0,0-.6.647l.312,8.751a.628.628,0,0,0,.191.427.62.62,0,0,0,.434.175h.022a.622.622,0,0,0,.436-.2.628.628,0,0,0,.167-.448l-.313-8.75a.628.628,0,0,0-.2-.436A.621.621,0,0,0,1897.186,111.25Zm1.252-3.75a.327.327,0,0,0-.121.023.32.32,0,0,0-.1.067.307.307,0,0,0-.09.222v.937h3.749v-.937a.307.307,0,0,0-.09-.222.319.319,0,0,0-.1-.067.327.327,0,0,0-.121-.023Z" fill="#959fa8"/>
  </g>
</svg>
