<svg xmlns="http://www.w3.org/2000/svg" width="35" height="35" viewBox="0 0 35 35">
  <g id="Layer_x0020_1" data-name="Layer x0020 1" transform="translate(-194 -274)">
    <rect id="Vector" width="35" height="35" transform="translate(194 274)" fill="none"/>
    <path id="Vector-2" data-name="Vector" d="M211.5,307.96a16.459,16.459,0,1,1,11.64-4.821A16.349,16.349,0,0,1,211.5,307.96Zm0-31.954a15.493,15.493,0,1,0,10.957,4.538A15.392,15.392,0,0,0,211.5,276.006Z" fill="#40484e"/>
    <path id="Vector-3" data-name="Vector" d="M211.5,302.849c-1.45,0-2.336-.477-2.634-1.418a3,3,0,0,1,.113-1.8l.112-.33h.345a1.51,1.51,0,0,0,1.512-1.511,1.481,1.481,0,0,0-.151-.66l-.3-.625.692-.067a1.513,1.513,0,0,0,.694-2.764l-.68-.454.729-.374a1.515,1.515,0,0,0,0-2.695l-.729-.374.68-.454a1.514,1.514,0,0,0-.694-2.765l-.692-.066.3-.625a1.481,1.481,0,0,0,.151-.66,1.51,1.51,0,0,0-1.512-1.511h-.221l-.146-.174a2.42,2.42,0,0,1-.447-.939,1.918,1.918,0,0,1,.049-1.118,1.77,1.77,0,0,1,.967-.987,4.479,4.479,0,0,1,1.863-.329,11.349,11.349,0,0,1,0,22.7Zm0-21.731a3.58,3.58,0,0,0-1.46.238.843.843,0,0,0-.469.448.979.979,0,0,0-.012.563,1.587,1.587,0,0,0,.141.379,2.478,2.478,0,0,1,2.212,2.463,2.453,2.453,0,0,1-.056.519,2.473,2.473,0,0,1,1.365,3.5,2.534,2.534,0,0,1-.308.449,2.493,2.493,0,0,1,.436.53,2.473,2.473,0,0,1-.436,3.109,2.5,2.5,0,0,1,.308.449,4.59,4.59,0,0,0-1.31,4.021,2.478,2.478,0,0,1-2.11,2.45,1.674,1.674,0,0,0-.017.9c.156.493.733.742,1.714.742a10.382,10.382,0,0,0,0-20.765Z" fill="#40484e"/>
    <path id="Vector-4" data-name="Vector" d="M206.608,302.047a2.48,2.48,0,0,1-2.387-1.82,2.489,2.489,0,0,1-.442.04,2.477,2.477,0,0,1-2.477-2.477.861.861,0,0,0-.959-1.192,2.474,2.474,0,0,1-.043-3.279,2.471,2.471,0,0,1-.436-3.109,2.441,2.441,0,0,1,.436-.53,2.538,2.538,0,0,1-.308-.449,2.472,2.472,0,0,1,.351-2.83,2.481,2.481,0,0,1,1.014-.672,2.52,2.52,0,0,1-.056-.52,2.477,2.477,0,0,1,2.919-2.437,2.476,2.476,0,0,1,4.774,0,2.477,2.477,0,0,1,2.919,2.437,2.457,2.457,0,0,1-.056.52,2.477,2.477,0,0,1,1.658,2.336,2.447,2.447,0,0,1-.292,1.165,2.534,2.534,0,0,1-.308.449,2.473,2.473,0,0,1,0,3.64,2.5,2.5,0,0,1,.308.449,4.59,4.59,0,0,0-1.31,4.021,2.478,2.478,0,0,1-2.919,2.437,2.48,2.48,0,0,1-2.387,1.82Zm-1.995-2.927h0a.483.483,0,0,1,.482.473,1.513,1.513,0,0,0,3.025.026.472.472,0,0,1,.044-.22.483.483,0,0,1,.64-.237,1.481,1.481,0,0,0,.306.1,1.548,1.548,0,0,0,.326.034,1.512,1.512,0,0,0,1.512-1.511,1.528,1.528,0,0,0-.038-.34,1.548,1.548,0,0,0-.113-.32.5.5,0,0,1-.045-.166.482.482,0,0,1,.434-.525,1.517,1.517,0,0,0,1.189-2.218,1.532,1.532,0,0,0-.5-.546.494.494,0,0,1-.161-.181.482.482,0,0,1,.21-.647,1.514,1.514,0,0,0,.016-2.686.482.482,0,0,1-.065-.837,1.532,1.532,0,0,0,.5-.546,1.515,1.515,0,0,0-1.157-2.215.473.473,0,0,1-.2-.049.482.482,0,0,1-.222-.645,1.483,1.483,0,0,0,.151-.661,1.51,1.51,0,0,0-1.512-1.51,1.548,1.548,0,0,0-.326.034,1.475,1.475,0,0,0-.306.1.481.481,0,0,1-.194.043H208.6a.482.482,0,0,1-.48-.473,1.513,1.513,0,0,0-3.025-.025.478.478,0,0,1-.044.22.483.483,0,0,1-.437.28.477.477,0,0,1-.2-.045,1.505,1.505,0,0,0-.307-.1,1.553,1.553,0,0,0-.327-.034,1.51,1.51,0,0,0-1.511,1.51,1.482,1.482,0,0,0,.151.661.511.511,0,0,1,.045.166.48.48,0,0,1-.434.524,1.518,1.518,0,0,0-1.189,2.219,1.532,1.532,0,0,0,.5.546.481.481,0,0,1-.049.828,1.514,1.514,0,0,0-.017,2.686.474.474,0,0,1,.2.169.482.482,0,0,1-.132.668,1.5,1.5,0,0,0-.671,1.258,1.512,1.512,0,0,0,1.333,1.5.473.473,0,0,1,.2.049.481.481,0,0,1,.222.644,1.548,1.548,0,0,0-.113.32,1.527,1.527,0,0,0-.038.34,1.512,1.512,0,0,0,1.511,1.511,1.553,1.553,0,0,0,.327-.034,1.507,1.507,0,0,0,.307-.1.5.5,0,0,1,.194-.043Z" fill="#40484e"/>
    <path id="Vector-5" data-name="Vector" d="M218.215,290.527a1.032,1.032,0,0,1-.953-.638l-.925-2.242a1.031,1.031,0,0,1,.561-1.345l.919-.379a1.018,1.018,0,0,1,.39-.077,1.032,1.032,0,0,1,.954.638l.924,2.242a1.029,1.029,0,0,1-.56,1.345l-.919.379A1.019,1.019,0,0,1,218.215,290.527Zm-.011-3.717h-.01a.46.46,0,0,1-.049.019l-.843.347a.339.339,0,0,1-.049.022.079.079,0,0,0-.023.031.071.071,0,0,0,0,.039c.007.016.014.033.019.049l.909,2.205a.065.065,0,0,0,.036.035.073.073,0,0,0,.028.006.059.059,0,0,0,.024,0l.918-.378a.066.066,0,0,0,.034-.037.067.067,0,0,0,0-.051l-.909-2.2a.483.483,0,0,1-.022-.05.07.07,0,0,0-.031-.023A.075.075,0,0,0,218.2,286.81Z" fill="#40484e"/>
    <path id="Vector-6" data-name="Vector" d="M218.115,296.051a1.9,1.9,0,1,1,1.34-.555A1.883,1.883,0,0,1,218.115,296.051Zm0-2.826a.929.929,0,1,0,.658.273A.923.923,0,0,0,218.115,293.225Z" fill="#40484e"/>
    <path id="Vector-7" data-name="Vector" d="M213.391,300.676a.484.484,0,0,1-.341-.141.442.442,0,0,1-.109-.163,2.3,2.3,0,0,1-.143-1.614,1.978,1.978,0,0,1,.991-1.23.489.489,0,0,1,.072-.036,1.931,1.931,0,0,1,.822-.182,2.057,2.057,0,0,1,.755.145,2.3,2.3,0,0,1,1.213,1.132.482.482,0,0,1-.219.645l-2.829,1.394A.476.476,0,0,1,213.391,300.676Zm.859-2.3h0a1.018,1.018,0,0,0-.525.648,1.286,1.286,0,0,0-.04.491l1.813-.894a1.259,1.259,0,0,0-.411-.265,1.1,1.1,0,0,0-.4-.079.962.962,0,0,0-.431.1Z" fill="#40484e"/>
    <path id="Vector-8" data-name="Vector" d="M214.665,285.466a1.22,1.22,0,1,1,.862-.357A1.215,1.215,0,0,1,214.665,285.466Zm0-1.472a.255.255,0,0,0-.179.074.258.258,0,0,0-.074.179.254.254,0,0,0,.253.254.255.255,0,0,0,.254-.254.255.255,0,0,0-.075-.179A.252.252,0,0,0,214.665,283.993Z" fill="#40484e"/>
    <circle id="Vector-9" data-name="Vector" cx="0.66" cy="0.66" r="0.66" transform="translate(214.63 289.54)" fill="#40484e"/>
    <circle id="Vector-10" data-name="Vector" cx="0.66" cy="0.66" r="0.66" transform="translate(203.36 290.33)" fill="#40484e"/>
    <circle id="Vector-11" data-name="Vector" cx="0.66" cy="0.66" r="0.66" transform="translate(205.56 294.99)" fill="#40484e"/>
    <path id="Vector-12" data-name="Vector" d="M223.384,285.457a.482.482,0,1,1,.86-.434,14.282,14.282,0,0,1,1.338,8.8.482.482,0,1,1-.951-.158,13.348,13.348,0,0,0-1.248-8.2Z" fill="#40484e"/>
    <circle id="Vector-13" data-name="Vector" cx="0.66" cy="0.66" r="0.66" transform="translate(206.97 285.73)" fill="#40484e"/>
  </g>
</svg>
