<svg xmlns="http://www.w3.org/2000/svg" width="35" height="35" viewBox="0 0 35 35">
  <g id="ramen" transform="translate(-114 -274)">
    <g id="Layer_x0020_1" data-name="Layer x0020 1">
      <rect id="Vector" width="35" height="35" transform="translate(114 274)" fill="none"/>
      <g id="_2956687876816" data-name="2956687876816">
        <path id="Vector-2" data-name="Vector" d="M139.206,292.425h-5.09l.434-.728a2.075,2.075,0,0,0,0-2.285l-.018-.03-.009-.019c-.043-.1-.069-.159-.087-.2s-.047-.125-.076-.207l-.094-.276.2-.212a3.729,3.729,0,0,1,4.37-.755,3.767,3.767,0,0,1,1.322,1.111l.148.2-1.1,3.407Zm-2.04-4.147a2.753,2.753,0,0,0-1.782.649l.012.027a3.169,3.169,0,0,1,.463,1.6,2.939,2.939,0,0,1-.147.9h2.795l.73-2.253a2.745,2.745,0,0,0-2.071-.929Z" fill="#40484e"/>
        <path id="Vector-3" data-name="Vector" d="M144.665,292.426h-5.809a.483.483,0,0,1-.446-.669l1.872-5.778a.481.481,0,0,1,.606-.311l5.258,1.7a.484.484,0,0,1,.311.607l-1.333,4.112a.481.481,0,0,1-.459.335h0Zm-3.615-5.693-1.531,4.727h4.8l1.076-3.32-4.342-1.407Z" fill="#40484e"/>
        <path id="Vector-4" data-name="Vector" d="M124.225,292.426H115.7l-.091-.37a5.464,5.464,0,0,1,.221-3.366,4.117,4.117,0,0,1,2.154-2.253l.07-.03.01,0,.017-.007a3.752,3.752,0,0,1,1.387-.264,4.215,4.215,0,0,1,1.915.48,5.334,5.334,0,0,1,2.412,2.667c.034.079.053.125.064.153a5.883,5.883,0,0,1,.343,1.259,5.659,5.659,0,0,1,.056,1.286l-.032.448Zm-4.754-5.33h0a2.8,2.8,0,0,0-1.035.2l-.069.027-.006,0a3.153,3.153,0,0,0-1.641,1.732,4.406,4.406,0,0,0-.251,2.4h6.837a4.7,4.7,0,0,0-.055-.621,5,5,0,0,0-.29-1.052l-.023-.058-.03-.072a4.366,4.366,0,0,0-1.967-2.188,3.229,3.229,0,0,0-1.47-.371Z" fill="#40484e"/>
        <path id="Vector-5" data-name="Vector" d="M122.457,292.425h-5.019l-.065-.409c-.013-.089-.021-.152-.025-.2-.005-.071-.008-.139-.008-.2a2.608,2.608,0,0,1,5.215,0c0,.067,0,.135-.009.2s-.013.131-.025.2l-.064.409Zm-2.51-2.457a1.642,1.642,0,0,0-1.635,1.491h3.271a1.642,1.642,0,0,0-1.635-1.491Z" fill="#40484e"/>
        <path id="Vector-6" data-name="Vector" d="M138.514,307.4H122.4a.483.483,0,0,1-.483-.482v-1.723a15.341,15.341,0,0,1-5.443-5.12,13.291,13.291,0,0,1-2.075-7.091c0-.151,0-.328.013-.541.01-.231.02-.4.032-.537a.485.485,0,0,1,.481-.443H145.99a.482.482,0,0,1,.482.459c.013.17.023.345.031.521.008.213.013.39.013.541a13.291,13.291,0,0,1-2.075,7.091,15.336,15.336,0,0,1-5.444,5.12v1.723A.483.483,0,0,1,138.514,307.4ZM115.38,292.426l0,.052c-.006.159-.009.328-.009.5a12.332,12.332,0,0,0,1.924,6.578,14.372,14.372,0,0,0,5.314,4.91.487.487,0,0,1,.281.439v1.523h15.144v-1.523a.486.486,0,0,1,.255-.425,14.388,14.388,0,0,0,5.34-4.925,12.332,12.332,0,0,0,1.924-6.578c0-.176,0-.345-.009-.5l0-.052H115.38Z" fill="#40484e"/>
        <path id="Vector-7" data-name="Vector" d="M117.3,295.188a.482.482,0,1,1,.943-.2,10.181,10.181,0,0,0,1.557,3.578,11.849,11.849,0,0,0,2.9,2.936.482.482,0,1,1-.559.785A12.817,12.817,0,0,1,119,299.106a11.141,11.141,0,0,1-1.7-3.918Z" fill="#40484e"/>
        <path id="Vector-8" data-name="Vector" d="M148.114,279.121H122.772a.483.483,0,0,1-.483-.482v-1.922a.482.482,0,0,1,.472-.482l25.3-.63.053,0a.483.483,0,0,1,.483.482v2.553A.483.483,0,0,1,148.114,279.121Zm-.482-2.543-24.377.608v.969h24.376v-1.577Z" fill="#40484e"/>
        <path id="Vector-9" data-name="Vector" d="M148.114,281.674l-.053,0-13.578-.347a.483.483,0,0,1-.469-.448,4.819,4.819,0,0,1,.07-1.205,5.908,5.908,0,0,1,.366-1.219.481.481,0,0,1,.445-.3h13.219a.484.484,0,0,1,.483.483v2.552A.484.484,0,0,1,148.114,281.674Zm-12.888-2.553a4.619,4.619,0,0,0-.2.72,4.02,4.02,0,0,0-.061.534l12.662.323v-1.577H135.226Zm-7.623,2.028h-.027l-4.814-.108a.481.481,0,0,1-.471-.481l0-1.921a.484.484,0,0,1,.483-.483H128a.483.483,0,0,1,.44.683,4.91,4.91,0,0,0-.289.922,3.977,3.977,0,0,0-.08.9A.482.482,0,0,1,127.6,281.148Zm-4.348-2.028h0v.968l3.869.086a5.127,5.127,0,0,1,.086-.6c.03-.147.067-.3.11-.45Z" fill="#40484e"/>
        <path id="Vector-10" data-name="Vector" d="M129.927,278.451a.483.483,0,0,1,.89.374,4.432,4.432,0,0,0-.375,1.8,3.884,3.884,0,0,0,.423,1.677,3.822,3.822,0,0,1,.007,4.018,3.11,3.11,0,0,0,0,2.635,3,3,0,0,1-.019,3.234.48.48,0,0,1-.826-.491,2.069,2.069,0,0,0,.015-2.26.489.489,0,0,1-.041-.074,4.044,4.044,0,0,1,0-3.455h0a.407.407,0,0,1,.022-.043,2.892,2.892,0,0,0,0-3.1l-.015-.027a4.84,4.84,0,0,1-.531-2.1,5.378,5.378,0,0,1,.447-2.187Z" fill="#40484e"/>
        <path id="Vector-11" data-name="Vector" d="M132.188,278.451a.483.483,0,0,1,.89.374,4.431,4.431,0,0,0-.375,1.8,3.879,3.879,0,0,0,.423,1.677,3.822,3.822,0,0,1,.007,4.018,3.109,3.109,0,0,0,0,2.635,3,3,0,0,1-.019,3.234.48.48,0,0,1-.826-.491,2.071,2.071,0,0,0,.015-2.26.488.488,0,0,1-.041-.074,4.044,4.044,0,0,1,0-3.455h0c.007-.015.014-.029.022-.043a2.892,2.892,0,0,0,0-3.1l-.015-.027a4.842,4.842,0,0,1-.531-2.1,5.374,5.374,0,0,1,.447-2.187Z" fill="#40484e"/>
        <path id="Vector-12" data-name="Vector" d="M127.666,278.451a.483.483,0,0,1,.89.374,4.439,4.439,0,0,0-.375,1.8,3.881,3.881,0,0,0,.424,1.677,3.821,3.821,0,0,1,.007,4.018,3.11,3.11,0,0,0,0,2.635,3,3,0,0,1-.019,3.234.48.48,0,0,1-.826-.491,2.069,2.069,0,0,0,.015-2.26.471.471,0,0,1-.041-.074,4.042,4.042,0,0,1,0-3.455h0a.449.449,0,0,1,.022-.043,2.892,2.892,0,0,0,0-3.1l-.015-.027a4.84,4.84,0,0,1-.531-2.1,5.376,5.376,0,0,1,.447-2.187Z" fill="#40484e"/>
        <path id="Vector-13" data-name="Vector" d="M126.191,292.425h-2.933l.038-.517a4.7,4.7,0,0,0-.044-1.07,5.035,5.035,0,0,0-.67-1.816,4.554,4.554,0,0,0-.5-.667l-.319-.353.347-.322a3.727,3.727,0,0,1,2.542-1,3.817,3.817,0,0,1,.545.04,3.714,3.714,0,0,1,.532.119l.381.114-.04.4a3.165,3.165,0,0,0,.281,1.607,3,3,0,0,1-.019,3.234l-.141.237Zm-1.539-4.78a2.739,2.739,0,0,0-1.532.461c.1.138.2.277.279.41a5.887,5.887,0,0,1,.872,2.943h1.362a2.105,2.105,0,0,0,.216-.9,2.233,2.233,0,0,0-.343-1.143l-.018-.03-.008-.019a4.2,4.2,0,0,1-.386-1.684l-.036-.005A2.825,2.825,0,0,0,124.652,287.645Z" fill="#40484e"/>
        <path id="Vector-14" data-name="Vector" d="M124.958,280.618a.481.481,0,0,1,.962-.012,3.729,3.729,0,0,0,.113.858,4.127,4.127,0,0,0,.31.835,3.82,3.82,0,0,1,.007,4.018,3.108,3.108,0,0,0,0,2.635,3,3,0,0,1-.019,3.234.48.48,0,0,1-.826-.491,2.069,2.069,0,0,0,.015-2.26.5.5,0,0,1-.041-.074,4.045,4.045,0,0,1,0-3.455h0c.007-.015.014-.029.022-.044a2.892,2.892,0,0,0,0-3.1l-.015-.027a5.091,5.091,0,0,1-.391-1.042,4.687,4.687,0,0,1-.14-1.081Z" fill="#40484e"/>
        <path id="Vector-15" data-name="Vector" d="M134.449,278.451a.483.483,0,0,1,.89.374,4.424,4.424,0,0,0-.375,1.8,3.881,3.881,0,0,0,.423,1.677,3.821,3.821,0,0,1,.007,4.018,3.11,3.11,0,0,0,0,2.635,3,3,0,0,1-.019,3.234.48.48,0,0,1-.826-.491,2.069,2.069,0,0,0,.014-2.26.487.487,0,0,1-.041-.074,4.044,4.044,0,0,1,0-3.455h0a.406.406,0,0,1,.022-.043,2.893,2.893,0,0,0,0-3.1l-.014-.027a4.84,4.84,0,0,1-.531-2.1,5.37,5.37,0,0,1,.447-2.187Z" fill="#40484e"/>
      </g>
    </g>
  </g>
</svg>
