<svg xmlns="http://www.w3.org/2000/svg" width="19.5" height="19.499" viewBox="0 0 19.5 19.499">
  <g id="ion:checkmark-circle" transform="translate(-2198.25 -574.25)">
    <path id="Vector" d="M2208,593.75a9.75,9.75,0,1,1,9.75-9.75A9.761,9.761,0,0,1,2208,593.75Zm-4.512-9.763a.758.758,0,0,0-.5.192.754.754,0,0,0-.2.82.762.762,0,0,0,.157.252l2.7,3a.742.742,0,0,0,.252.184.752.752,0,0,0,.305.065h.012a.751.751,0,0,0,.311-.073.735.735,0,0,0,.252-.2l6.3-7.5a.75.75,0,0,0-.58-1.224l-.061,0a.754.754,0,0,0-.508.256l-5.747,6.84-2.123-2.359a.748.748,0,0,0-.52-.26Z" fill="#fc4747"/>
  </g>
</svg>
