<svg xmlns="http://www.w3.org/2000/svg" width="35" height="35" viewBox="0 0 35 35">
  <g id="sushi" transform="translate(-34 -274)">
    <g id="Layer_x0020_1" data-name="Layer x0020 1">
      <rect id="Vector" width="35" height="35" transform="translate(34 274)" fill="none"/>
      <g id="_2956684732944" data-name="2956684732944">
        <path id="Vector-2" data-name="Vector" d="M51.5,287.1a10.794,10.794,0,0,1-5.723-1.514,4.268,4.268,0,0,1,0-7.758,11.574,11.574,0,0,1,11.445,0,4.267,4.267,0,0,1,0,7.758A10.787,10.787,0,0,1,51.5,287.1Zm0-9.82a9.828,9.828,0,0,0-5.207,1.363,3.323,3.323,0,0,0,0,6.129,10.627,10.627,0,0,0,10.412,0,3.323,3.323,0,0,0,0-6.129A9.822,9.822,0,0,0,51.5,277.277Z" fill="#fff"/>
        <path id="Vector-3" data-name="Vector" d="M51.5,295.111c-.145,0-.316,0-.522-.013-.182-.007-.357-.017-.518-.031l-.444-.036v-.785l-.156-.053.006-.019.006-.021.143.049v-.069l-.124-.039.006-.023,0-.007.007-.018.109.032v-.057l-.1-.026v-.007s0-.008.009-.024l0-.006.006-.024.08.02v-.041l-.071-.017,0-.008s0-.006.005-.029l0-.014s0-.007.006-.021l.055.012v-.03l-.05-.009,0-.028v0l0-.013v-.007s0-.01.005-.034l.034.005v-.016l-.032-.005a.148.148,0,0,0,0-.018l0-.027c0-.008,0-.009,0-.01s0-.006,0-.035l.02,0V293.6l-.018,0c0-.035,0-.036,0-.038v-.009c0-.01,0-.01,0-.012s0,0,0-.037h.009v-.007h-.008l0-.039c0-.007,0-.01,0-.012l0-.051v-.109a3.626,3.626,0,0,0-1.718-2.847,9.156,9.156,0,0,0-4.564-1.541l-.445-.037V281.7h.966a3.783,3.783,0,0,0,2.039,3.065,10.627,10.627,0,0,0,10.412,0,3.782,3.782,0,0,0,2.039-3.065h.967v7.153l-.445.037a9.156,9.156,0,0,0-4.564,1.541,3.627,3.627,0,0,0-1.717,2.847v.107l0,.053s0,.007,0,.018l0,.034h-.007v.007h.008v.016c0,.006,0,.011,0,.014s0,.007,0,.008a.066.066,0,0,0,0,.007.086.086,0,0,0,0,.013s0,0,.006.038l-.018,0v.011l.019,0,0,.013c0,.012,0,.017,0,.02a.055.055,0,0,0,0,.008v.006c0,.01,0,.019,0,.029l0,.014-.03.008v.017l.024,0-.017.089.043-.009,0-.02a.092.092,0,0,0,0-.014v-.007l0-.012,0-.012.107.42-.144.05h0l.149-.029,0-.011,0,.01,0,.018-.155.054v.785l-.445.036c-.164.014-.338.024-.517.031C51.815,295.107,51.645,295.111,51.5,295.111ZM44.255,284.26h0v3.717a9.983,9.983,0,0,1,4.609,1.678,4.555,4.555,0,0,1,2.118,3.628v.853h.034c.13.006.288.009.484.009s.353,0,.483-.009h.034v-.853a4.555,4.555,0,0,1,2.118-3.628,9.988,9.988,0,0,1,4.609-1.678V284.26a6.285,6.285,0,0,1-1.522,1.324,11.573,11.573,0,0,1-11.445,0A6.318,6.318,0,0,1,44.255,284.26Z" fill="#fff"/>
        <path id="Vector-4" data-name="Vector" d="M51.5,284.384a1.695,1.695,0,1,1,1.2-.5A1.683,1.683,0,0,1,51.5,284.384Zm0-2.421a.728.728,0,1,0,.514.213A.723.723,0,0,0,51.5,281.963Z" fill="#fff"/>
        <path id="Vector-5" data-name="Vector" d="M48.584,283.751a1.693,1.693,0,1,1,1.2-.5A1.686,1.686,0,0,1,48.584,283.751Zm0-2.421a.727.727,0,1,0,.514.213A.723.723,0,0,0,48.584,281.33Z" fill="#fff"/>
        <path id="Vector-6" data-name="Vector" d="M54.417,283.751a1.693,1.693,0,1,1,1.2-.5A1.686,1.686,0,0,1,54.417,283.751Zm0-2.421a.728.728,0,1,0,.514.213A.723.723,0,0,0,54.417,281.33Z" fill="#fff"/>
        <path id="Vector-7" data-name="Vector" d="M50.291,281.624a1.693,1.693,0,1,1,1.2-.5A1.683,1.683,0,0,1,50.291,281.624Zm0-2.42a.727.727,0,1,0,.514.212A.723.723,0,0,0,50.291,279.2Z" fill="#fff"/>
        <path id="Vector-8" data-name="Vector" d="M52.709,281.624a1.693,1.693,0,1,1,1.2-.5A1.682,1.682,0,0,1,52.709,281.624Zm0-2.42a.725.725,0,1,0,.515.212A.722.722,0,0,0,52.709,279.2Z" fill="#fff"/>
        <path id="Vector-9" data-name="Vector" d="M42.771,298.675a10.788,10.788,0,0,1-5.722-1.513,4.268,4.268,0,0,1,0-7.759,11.574,11.574,0,0,1,11.445,0,4.269,4.269,0,0,1,0,7.759A10.789,10.789,0,0,1,42.771,298.675Zm0-9.82a9.822,9.822,0,0,0-5.206,1.363,3.323,3.323,0,0,0,0,6.129,10.627,10.627,0,0,0,10.412,0,3.323,3.323,0,0,0,0-6.129A9.828,9.828,0,0,0,42.771,288.855Z" fill="#fff"/>
        <path id="Vector-10" data-name="Vector" d="M42.772,295.961a6.821,6.821,0,0,1-3.145-.7,2.067,2.067,0,0,1,0-3.955,7.4,7.4,0,0,1,6.288,0,2.067,2.067,0,0,1,0,3.955A6.819,6.819,0,0,1,42.772,295.961Zm0-4.392a5.862,5.862,0,0,0-2.692.584c-.614.327-.952.728-.952,1.129s.338.8.952,1.129a6.484,6.484,0,0,0,5.383,0c.614-.327.952-.728.952-1.129s-.338-.8-.952-1.129A5.86,5.86,0,0,0,42.772,291.569Z" fill="#fff"/>
        <path id="Vector-11" data-name="Vector" d="M42.771,306.689a10.787,10.787,0,0,1-5.722-1.513,4.7,4.7,0,0,1-2.489-3.88v-8.014h.967a3.779,3.779,0,0,0,2.038,3.065,10.627,10.627,0,0,0,10.412,0,3.781,3.781,0,0,0,2.038-3.065h.966V301.3a4.7,4.7,0,0,1-2.488,3.88A10.789,10.789,0,0,1,42.771,306.689Zm-7.244-10.851h0V301.3a3.779,3.779,0,0,0,2.038,3.064,10.627,10.627,0,0,0,10.412,0,3.781,3.781,0,0,0,2.038-3.064v-5.458a6.32,6.32,0,0,1-1.522,1.325,11.58,11.58,0,0,1-11.445,0A6.319,6.319,0,0,1,35.527,295.837Z" fill="#fff"/>
        <path id="Vector-12" data-name="Vector" d="M36.522,298.907a.483.483,0,0,1,.966,0v2.6a.483.483,0,0,1-.966,0v-2.6Z" fill="#fff"/>
        <path id="Vector-13" data-name="Vector" d="M60.229,298.675a10.789,10.789,0,0,1-5.723-1.513,4.268,4.268,0,0,1,0-7.759,11.575,11.575,0,0,1,11.446,0,4.269,4.269,0,0,1,0,7.759A10.794,10.794,0,0,1,60.229,298.675Zm0-9.82a9.828,9.828,0,0,0-5.207,1.363,3.323,3.323,0,0,0,0,6.129,10.627,10.627,0,0,0,10.412,0,3.322,3.322,0,0,0,0-6.129A9.822,9.822,0,0,0,60.229,288.855Z" fill="#fff"/>
        <path id="Vector-14" data-name="Vector" d="M60.229,306.689a10.789,10.789,0,0,1-5.723-1.513,4.7,4.7,0,0,1-2.489-3.88v-8.014h.967a3.78,3.78,0,0,0,2.038,3.065,10.627,10.627,0,0,0,10.412,0,3.78,3.78,0,0,0,2.039-3.065h.966V301.3a4.7,4.7,0,0,1-2.488,3.88A10.794,10.794,0,0,1,60.229,306.689Zm-7.245-10.851h0V301.3a3.781,3.781,0,0,0,2.038,3.064,10.627,10.627,0,0,0,10.412,0,3.78,3.78,0,0,0,2.039-3.064v-5.458a6.321,6.321,0,0,1-1.522,1.325,11.581,11.581,0,0,1-11.446,0A6.319,6.319,0,0,1,52.984,295.837Z" fill="#fff"/>
        <path id="Vector-15" data-name="Vector" d="M53.98,298.907a.483.483,0,1,1,.966,0v2.6a.483.483,0,1,1-.966,0v-2.6Z" fill="#fff"/>
        <path id="Vector-16" data-name="Vector" d="M60.229,296.046a.486.486,0,0,1-.218-.052l-4.494-2.281a.481.481,0,0,1,0-.861l4.492-2.281a.475.475,0,0,1,.217-.052.487.487,0,0,1,.218.052l4.494,2.281a.482.482,0,0,1,0,.862l-4.492,2.281A.479.479,0,0,1,60.229,296.046Zm0-4.505L56.8,293.282l3.431,1.742,3.43-1.742-3.43-1.741Z" fill="#fff"/>
        <path id="Vector-17" data-name="Vector" d="M45.251,287.684a.483.483,0,1,1,.966,0v.951a.483.483,0,1,1-.966,0v-.951Z" fill="#fff"/>
      </g>
    </g>
  </g>
</svg>
